<svg width="52" height="52" viewBox="0 0 52 52" fill="none" xmlns="http://www.w3.org/2000/svg">
<g opacity="0.71">
<path d="M7.04165 20.9083C6.78887 20.7277 6.63576 20.5017 6.58232 20.2301C6.52743 19.96 6.60832 19.6805 6.82498 19.3916C9.06387 16.3222 11.8712 13.9388 15.2468 12.2416C18.6239 10.5444 22.2264 9.69578 26.0542 9.69578C29.8819 9.69578 33.493 10.517 36.8875 12.1593C40.2819 13.8031 43.1167 16.1777 45.3917 19.2833C45.6083 19.6083 45.6805 19.8972 45.6083 20.15C45.5361 20.4027 45.3917 20.6194 45.175 20.8C44.9583 20.9805 44.7055 21.0614 44.4167 21.0426C44.1278 21.0253 43.875 20.8722 43.6583 20.5833C41.6722 17.7666 39.1177 15.6086 35.9948 14.1093C32.8705 12.6114 29.5569 11.8625 26.0542 11.8625C22.5514 11.8625 19.2653 12.6114 16.1958 14.1093C13.1264 15.6086 10.5805 17.7666 8.55832 20.5833C8.34165 20.9083 8.08887 21.0888 7.79998 21.125C7.51109 21.1611 7.25832 21.0888 7.04165 20.9083ZM32.175 47.6125C28.4194 46.6736 25.35 44.8045 22.9667 42.0051C20.5833 39.2072 19.3917 35.7861 19.3917 31.7416C19.3917 29.9361 20.0417 28.4194 21.3417 27.1916C22.6417 25.9638 24.2125 25.35 26.0542 25.35C27.8958 25.35 29.4667 25.9638 30.7667 27.1916C32.0667 28.4194 32.7167 29.9361 32.7167 31.7416C32.7167 32.9333 33.168 33.9357 34.0708 34.749C34.9736 35.5607 36.0389 35.9666 37.2667 35.9666C38.4944 35.9666 39.5417 35.5607 40.4083 34.749C41.275 33.9357 41.7083 32.9333 41.7083 31.7416C41.7083 27.5527 40.1736 24.0319 37.1042 21.1791C34.0347 18.3263 30.3694 16.9 26.1083 16.9C21.8472 16.9 18.1819 18.3263 15.1125 21.1791C12.043 24.0319 10.5083 27.5347 10.5083 31.6875C10.5083 32.5541 10.5899 33.6375 10.7531 34.9375C10.9149 36.2375 11.3028 37.7541 11.9166 39.4875C12.025 39.8125 12.0163 40.1013 11.8906 40.3541C11.7635 40.6069 11.5555 40.7875 11.2666 40.8958C10.9778 41.0041 10.6975 40.9947 10.426 40.8676C10.1559 40.742 9.96665 40.5347 9.85832 40.2458C9.31665 38.8375 8.92882 37.4378 8.69482 36.0468C8.45937 34.6572 8.34165 33.2222 8.34165 31.7416C8.34165 26.9388 10.0844 22.9125 13.5698 19.6625C17.0538 16.4125 21.2153 14.7875 26.0542 14.7875C30.9292 14.7875 35.118 16.4125 38.6208 19.6625C42.1236 22.9125 43.875 26.9388 43.875 31.7416C43.875 33.5472 43.2344 35.0552 41.9532 36.2656C40.6705 37.4746 39.1083 38.0791 37.2667 38.0791C35.425 38.0791 33.8455 37.4746 32.5282 36.2656C31.2094 35.0552 30.55 33.5472 30.55 31.7416C30.55 30.55 30.108 29.5475 29.224 28.7343C28.3385 27.9225 27.2819 27.5166 26.0542 27.5166C24.8264 27.5166 23.7698 27.9225 22.8843 28.7343C22.0003 29.5475 21.5583 30.55 21.5583 31.7416C21.5583 35.2444 22.5969 38.1694 24.674 40.5166C26.7497 42.8638 29.4305 44.5069 32.7167 45.4458C33.0417 45.5541 33.2583 45.7347 33.3667 45.9875C33.475 46.2402 33.493 46.5111 33.4208 46.8C33.3486 47.0527 33.2042 47.2694 32.9875 47.45C32.7708 47.6305 32.5 47.6847 32.175 47.6125V47.6125ZM14.0833 9.58745C13.7944 9.76801 13.5055 9.81278 13.2166 9.72178C12.9278 9.63223 12.7111 9.44301 12.5667 9.15412C12.4222 8.86523 12.3861 8.60306 12.4583 8.36762C12.5305 8.13362 12.7111 7.92634 13 7.74578C15.0222 6.66245 17.1347 5.8319 19.3375 5.25412C21.5403 4.67634 23.7792 4.38745 26.0542 4.38745C28.3653 4.38745 30.6222 4.66695 32.825 5.22595C35.0278 5.7864 37.1583 6.59023 39.2167 7.63745C39.5417 7.81801 39.7316 8.03467 39.7865 8.28745C39.8399 8.54023 39.8125 8.79301 39.7042 9.04578C39.5958 9.29856 39.4153 9.49717 39.1625 9.64162C38.9097 9.78606 38.6028 9.76801 38.2417 9.58745C36.3278 8.61245 34.3503 7.86278 32.3093 7.33845C30.2698 6.81556 28.1847 6.55412 26.0542 6.55412C23.9597 6.55412 21.9014 6.79751 19.8792 7.28428C17.8569 7.77251 15.925 8.54023 14.0833 9.58745V9.58745ZM20.475 46.8541C18.3444 44.6152 16.7108 42.3308 15.574 40.001C14.4358 37.6725 13.8667 34.9194 13.8667 31.7416C13.8667 28.4555 15.0583 25.6836 17.4417 23.426C19.825 21.1697 22.6958 20.0416 26.0542 20.0416C29.4125 20.0416 32.3014 21.1697 34.7208 23.426C37.1403 25.6836 38.35 28.4555 38.35 31.7416C38.35 32.0666 38.2503 32.3281 38.051 32.526C37.8531 32.7253 37.5917 32.825 37.2667 32.825C36.9778 32.825 36.725 32.7253 36.5083 32.526C36.2917 32.3281 36.1833 32.0666 36.1833 31.7416C36.1833 29.0333 35.1809 26.767 33.176 24.9426C31.1725 23.1197 28.7986 22.2083 26.0542 22.2083C23.3097 22.2083 20.9531 23.1197 18.9843 24.9426C17.017 26.767 16.0333 29.0333 16.0333 31.7416C16.0333 34.6666 16.5389 37.1489 17.55 39.1885C18.5611 41.2295 20.0417 43.2791 21.9917 45.3375C22.2083 45.5541 22.3167 45.8069 22.3167 46.0958C22.3167 46.3847 22.2083 46.6375 21.9917 46.8541C21.775 47.0708 21.5222 47.1791 21.2333 47.1791C20.9444 47.1791 20.6917 47.0708 20.475 46.8541V46.8541ZM36.8333 43.1708C33.6194 43.1708 30.8295 42.0875 28.4635 39.9208C26.0989 37.7541 24.9167 35.0277 24.9167 31.7416C24.9167 31.4527 25.0156 31.2 25.2135 30.9833C25.4128 30.7666 25.675 30.6583 26 30.6583C26.325 30.6583 26.5872 30.7666 26.7865 30.9833C26.9844 31.2 27.0833 31.4527 27.0833 31.7416C27.0833 34.45 28.0583 36.6708 30.0083 38.4041C31.9583 40.1375 34.2333 41.0041 36.8333 41.0041C37.05 41.0041 37.3569 40.9861 37.7542 40.95C38.1514 40.9138 38.5667 40.8597 39 40.7875C39.325 40.7152 39.6052 40.76 39.8407 40.9218C40.0747 41.085 40.2278 41.3291 40.3 41.6541C40.3722 41.943 40.318 42.1958 40.1375 42.4125C39.9569 42.6291 39.7222 42.7736 39.4333 42.8458C38.7833 43.0263 38.2149 43.126 37.7282 43.1448C37.2399 43.1621 36.9417 43.1708 36.8333 43.1708V43.1708Z" fill="#2D2300"/>
</g>
</svg>
