<svg width="453" height="927" viewBox="0 0 453 927" fill="none" xmlns="http://www.w3.org/2000/svg">
<mask id="path-1-outside-1_1_1137" maskUnits="userSpaceOnUse" x="-377.162" y="-497.294" width="830" height="1424" fill="black">
<rect fill="white" x="-377.162" y="-497.294" width="830" height="1424"/>
<path d="M61.5369 -385H91.9929V-496.294H68.1789L32.0529 -471.022L46.3089 -448.666L61.5369 -460.006V-385ZM108.952 -385H137.95V-424.852C137.95 -435.706 142.486 -440.404 148.966 -440.404C156.418 -440.404 158.524 -433.438 158.524 -424.852V-385H187.36V-424.852C187.36 -435.706 192.058 -440.404 197.89 -440.404C205.666 -440.404 207.448 -433.438 207.448 -424.852V-385H236.446V-431.494C236.446 -457.09 224.458 -466 208.096 -466C197.566 -466 188.494 -462.274 182.338 -454.822H182.014C177.154 -462.76 169.054 -466 159.334 -466C151.396 -466 143.944 -462.436 138.112 -455.632H137.95V-464.38H108.952V-385ZM250.069 -385H279.067V-424.852C279.067 -435.706 283.603 -440.404 290.083 -440.404C297.535 -440.404 299.641 -433.438 299.641 -424.852V-385H328.477V-424.852C328.477 -435.706 333.175 -440.404 339.007 -440.404C346.783 -440.404 348.565 -433.438 348.565 -424.852V-385H377.563V-431.494C377.563 -457.09 365.575 -466 349.213 -466C338.683 -466 329.611 -462.274 323.455 -454.822H323.131C318.271 -462.76 310.171 -466 300.451 -466C292.513 -466 285.061 -462.436 279.229 -455.632H279.067V-464.38H250.069V-385ZM417.755 -383.38C440.273 -383.38 451.289 -394.072 451.289 -409.624C451.289 -425.176 442.379 -430.36 424.397 -436.03C416.459 -438.622 414.515 -440.08 414.515 -441.7C414.515 -443.968 417.107 -444.94 419.537 -444.94C424.559 -444.94 431.201 -442.024 436.223 -436.678L449.669 -455.956C440.273 -462.598 431.525 -466 418.565 -466C402.041 -466 388.109 -456.766 388.109 -439.27C388.109 -424.204 399.935 -417.4 413.381 -413.512C423.101 -410.596 424.235 -409.3 424.235 -407.356C424.235 -405.25 422.291 -404.116 418.241 -404.116C412.247 -404.116 405.281 -407.032 398.477 -413.026L385.355 -395.206C394.427 -387.106 405.443 -383.38 417.755 -383.38Z"/>
<path d="M24.5173 -266H54.9733V-377.294H31.1593L-4.96667 -352.022L9.28934 -329.666L24.5173 -341.006V-266ZM71.9327 -266H100.931V-305.852C100.931 -316.706 105.467 -321.404 111.947 -321.404C119.399 -321.404 121.505 -314.438 121.505 -305.852V-266H150.341V-305.852C150.341 -316.706 155.039 -321.404 160.871 -321.404C168.647 -321.404 170.429 -314.438 170.429 -305.852V-266H199.427V-312.494C199.427 -338.09 187.439 -347 171.077 -347C160.547 -347 151.475 -343.274 145.319 -335.822H144.995C140.135 -343.76 132.035 -347 122.315 -347C114.377 -347 106.925 -343.436 101.093 -336.632H100.931V-345.38H71.9327V-266ZM213.05 -266H242.048V-305.852C242.048 -316.706 246.584 -321.404 253.064 -321.404C260.516 -321.404 262.622 -314.438 262.622 -305.852V-266H291.458V-305.852C291.458 -316.706 296.156 -321.404 301.988 -321.404C309.764 -321.404 311.546 -314.438 311.546 -305.852V-266H340.544V-312.494C340.544 -338.09 328.556 -347 312.194 -347C301.664 -347 292.592 -343.274 286.436 -335.822H286.112C281.252 -343.76 273.152 -347 263.432 -347C255.494 -347 248.042 -343.436 242.21 -336.632H242.048V-345.38H213.05V-266ZM380.735 -264.38C403.253 -264.38 414.269 -275.072 414.269 -290.624C414.269 -306.176 405.359 -311.36 387.377 -317.03C379.439 -319.622 377.495 -321.08 377.495 -322.7C377.495 -324.968 380.087 -325.94 382.517 -325.94C387.539 -325.94 394.181 -323.024 399.203 -317.678L412.649 -336.956C403.253 -343.598 394.505 -347 381.545 -347C365.021 -347 351.089 -337.766 351.089 -320.27C351.089 -305.204 362.915 -298.4 376.361 -294.512C386.081 -291.596 387.215 -290.3 387.215 -288.356C387.215 -286.25 385.271 -285.116 381.221 -285.116C375.227 -285.116 368.261 -288.032 361.457 -294.026L348.335 -276.206C357.407 -268.106 368.423 -264.38 380.735 -264.38Z"/>
<path d="M-12.5022 -147H17.9538V-258.294H-5.8602L-41.9862 -233.022L-27.7302 -210.666L-12.5022 -222.006V-147ZM34.9132 -147H63.9112V-186.852C63.9112 -197.706 68.4472 -202.404 74.9272 -202.404C82.3792 -202.404 84.4852 -195.438 84.4852 -186.852V-147H113.321V-186.852C113.321 -197.706 118.019 -202.404 123.851 -202.404C131.627 -202.404 133.409 -195.438 133.409 -186.852V-147H162.407V-193.494C162.407 -219.09 150.419 -228 134.057 -228C123.527 -228 114.455 -224.274 108.299 -216.822H107.975C103.115 -224.76 95.0152 -228 85.2952 -228C77.3572 -228 69.9052 -224.436 64.0732 -217.632H63.9112V-226.38H34.9132V-147ZM176.03 -147H205.028V-186.852C205.028 -197.706 209.564 -202.404 216.044 -202.404C223.496 -202.404 225.602 -195.438 225.602 -186.852V-147H254.438V-186.852C254.438 -197.706 259.136 -202.404 264.968 -202.404C272.744 -202.404 274.526 -195.438 274.526 -186.852V-147H303.524V-193.494C303.524 -219.09 291.536 -228 275.174 -228C264.644 -228 255.572 -224.274 249.416 -216.822H249.092C244.232 -224.76 236.132 -228 226.412 -228C218.474 -228 211.022 -224.436 205.19 -217.632H205.028V-226.38H176.03V-147ZM343.716 -145.38C366.234 -145.38 377.25 -156.072 377.25 -171.624C377.25 -187.176 368.34 -192.36 350.358 -198.03C342.42 -200.622 340.476 -202.08 340.476 -203.7C340.476 -205.968 343.068 -206.94 345.498 -206.94C350.52 -206.94 357.162 -204.024 362.184 -198.678L375.63 -217.956C366.234 -224.598 357.486 -228 344.526 -228C328.002 -228 314.07 -218.766 314.07 -201.27C314.07 -186.204 325.896 -179.4 339.342 -175.512C349.062 -172.596 350.196 -171.3 350.196 -169.356C350.196 -167.25 348.252 -166.116 344.202 -166.116C338.208 -166.116 331.242 -169.032 324.438 -175.026L311.316 -157.206C320.388 -149.106 331.404 -145.38 343.716 -145.38Z"/>
<path d="M-49.5217 -27.9999H-19.0657V-139.294H-42.8797L-79.0057 -114.022L-64.7497 -91.666L-49.5217 -103.006V-27.9999ZM-2.10635 -27.9999H26.8916V-67.8519C26.8916 -78.7059 31.4276 -83.4039 37.9077 -83.4039C45.3596 -83.4039 47.4656 -76.4379 47.4656 -67.8519V-27.9999H76.3016V-67.8519C76.3016 -78.7059 80.9996 -83.4039 86.8316 -83.4039C94.6076 -83.4039 96.3896 -76.4379 96.3896 -67.8519V-27.9999H125.388V-74.4939C125.388 -100.09 113.4 -109 97.0376 -109C86.5076 -109 77.4356 -105.274 71.2796 -97.8219H70.9557C66.0957 -105.76 57.9956 -109 48.2756 -109C40.3376 -109 32.8857 -105.436 27.0536 -98.6319H26.8916V-107.38H-2.10635V-27.9999ZM139.011 -27.9999H168.009V-67.8519C168.009 -78.7059 172.545 -83.4039 179.025 -83.4039C186.477 -83.4039 188.583 -76.4379 188.583 -67.8519V-27.9999H217.419V-67.8519C217.419 -78.7059 222.117 -83.4039 227.949 -83.4039C235.725 -83.4039 237.507 -76.4379 237.507 -67.8519V-27.9999H266.505V-74.4939C266.505 -100.09 254.517 -109 238.155 -109C227.625 -109 218.553 -105.274 212.397 -97.8219H212.073C207.213 -105.76 199.113 -109 189.393 -109C181.455 -109 174.003 -105.436 168.171 -98.6319H168.009V-107.38H139.011V-27.9999ZM306.696 -26.3799C329.214 -26.3799 340.23 -37.0719 340.23 -52.6239C340.23 -68.1759 331.32 -73.3599 313.338 -79.0299C305.4 -81.6219 303.456 -83.08 303.456 -84.7C303.456 -86.968 306.048 -87.9399 308.478 -87.9399C313.5 -87.9399 320.142 -85.024 325.164 -79.6779L338.61 -98.9559C329.214 -105.598 320.466 -109 307.506 -109C290.982 -109 277.05 -99.7659 277.05 -82.2699C277.05 -67.2039 288.876 -60.3999 302.322 -56.5119C312.042 -53.5959 313.176 -52.2999 313.176 -50.3559C313.176 -48.2499 311.232 -47.1159 307.182 -47.1159C301.188 -47.1159 294.222 -50.032 287.418 -56.0259L274.296 -38.2059C283.368 -30.1059 294.384 -26.3799 306.696 -26.3799Z"/>
<path d="M-86.5413 91.0001H-56.0853V-20.2939H-79.8993L-116.025 4.97806L-101.769 27.334L-86.5413 15.9941V91.0001ZM-39.1259 91.0001H-10.1279V51.1481C-10.1279 40.2941 -5.59189 35.5961 0.888123 35.5961C8.34012 35.5961 10.4461 42.5621 10.4461 51.1481V91.0001H39.2821V51.1481C39.2821 40.2941 43.9801 35.5961 49.8121 35.5961C57.5881 35.5961 59.3701 42.5621 59.3701 51.1481V91.0001H88.3681V44.506C88.3681 18.91 76.3801 10.0001 60.0181 10.0001C49.4881 10.0001 40.4161 13.726 34.2601 21.178H33.9361C29.0761 13.2401 20.9761 10.0001 11.2561 10.0001C3.31812 10.0001 -4.13388 13.5641 -9.96588 20.368H-10.1279V11.6201H-39.1259V91.0001ZM101.991 91.0001H130.989V51.1481C130.989 40.2941 135.525 35.5961 142.005 35.5961C149.457 35.5961 151.563 42.5621 151.563 51.1481V91.0001H180.399V51.1481C180.399 40.2941 185.097 35.5961 190.929 35.5961C198.705 35.5961 200.487 42.5621 200.487 51.1481V91.0001H229.485V44.506C229.485 18.91 217.497 10.0001 201.135 10.0001C190.605 10.0001 181.533 13.726 175.377 21.178H175.053C170.193 13.2401 162.093 10.0001 152.373 10.0001C144.435 10.0001 136.983 13.5641 131.151 20.368H130.989V11.6201H101.991V91.0001ZM269.676 92.6201C292.194 92.6201 303.211 81.928 303.211 66.376C303.211 50.824 294.3 45.64 276.318 39.97C268.38 37.3781 266.436 35.92 266.436 34.3C266.436 32.032 269.029 31.0601 271.458 31.0601C276.48 31.0601 283.122 33.9761 288.144 39.3221L301.591 20.0441C292.195 13.4021 283.447 10.0001 270.487 10.0001C253.963 10.0001 240.03 19.234 240.03 36.73C240.03 51.796 251.857 58.6 265.302 62.488C275.022 65.4041 276.156 66.7001 276.156 68.644C276.156 70.7501 274.212 71.884 270.162 71.884C264.168 71.884 257.203 68.9681 250.398 62.9741L237.276 80.7941C246.349 88.894 257.364 92.6201 269.676 92.6201Z"/>
<path d="M-123.561 210H-93.1048V98.7061H-116.919L-153.045 123.978L-138.789 146.334L-123.561 134.994V210ZM-76.1454 210H-47.1474V170.148C-47.1474 159.294 -42.6114 154.596 -36.1314 154.596C-28.6794 154.596 -26.5734 161.562 -26.5734 170.148V210H2.26257V170.148C2.26257 159.294 6.96057 154.596 12.7926 154.596C20.5686 154.596 22.3506 161.562 22.3506 170.148V210H51.3486V163.506C51.3486 137.91 39.3606 129 22.9986 129C12.4686 129 3.39658 132.726 -2.75943 140.178H-3.0834C-7.94339 132.24 -16.0434 129 -25.7634 129C-33.7014 129 -41.1534 132.564 -46.9854 139.368H-47.1474V130.62H-76.1454V210ZM64.9718 210H93.9698V170.148C93.9698 159.294 98.5058 154.596 104.986 154.596C112.438 154.596 114.544 161.562 114.544 170.148V210H143.38V170.148C143.38 159.294 148.078 154.596 153.91 154.596C161.686 154.596 163.468 161.562 163.468 170.148V210H192.466V163.506C192.466 137.91 180.478 129 164.116 129C153.586 129 144.514 132.726 138.358 140.178H138.034C133.174 132.24 125.074 129 115.354 129C107.416 129 99.9638 132.564 94.1318 139.368H93.9698V130.62H64.9718V210ZM232.657 211.62C255.175 211.62 266.191 200.928 266.191 185.376C266.191 169.824 257.281 164.64 239.299 158.97C231.361 156.378 229.417 154.92 229.417 153.3C229.417 151.032 232.009 150.06 234.439 150.06C239.461 150.06 246.103 152.976 251.125 158.322L264.571 139.044C255.175 132.402 246.427 129 233.467 129C216.943 129 203.011 138.234 203.011 155.73C203.011 170.796 214.837 177.6 228.283 181.488C238.003 184.404 239.137 185.7 239.137 187.644C239.137 189.75 237.193 190.884 233.143 190.884C227.149 190.884 220.183 187.968 213.379 181.974L200.257 199.794C209.329 207.894 220.345 211.62 232.657 211.62Z"/>
<path d="M-160.58 329H-130.124V217.706H-153.938L-190.064 242.978L-175.808 265.334L-160.58 253.994V329ZM-113.165 329H-84.167V289.148C-84.167 278.294 -79.631 273.596 -73.1509 273.596C-65.6989 273.596 -63.593 280.562 -63.593 289.148V329H-34.757V289.148C-34.757 278.294 -30.059 273.596 -24.227 273.596C-16.451 273.596 -14.6689 280.562 -14.6689 289.148V329H14.329V282.506C14.329 256.91 2.34103 248 -14.021 248C-24.551 248 -33.623 251.726 -39.779 259.178H-40.1029C-44.9629 251.24 -53.063 248 -62.783 248C-70.7209 248 -78.1729 251.564 -84.0049 258.368H-84.167V249.62H-113.165V329ZM27.9522 329H56.9502V289.148C56.9502 278.294 61.4862 273.596 67.9662 273.596C75.4182 273.596 77.5242 280.562 77.5242 289.148V329H106.36V289.148C106.36 278.294 111.058 273.596 116.89 273.596C124.666 273.596 126.448 280.562 126.448 289.148V329H155.446V282.506C155.446 256.91 143.458 248 127.096 248C116.566 248 107.494 251.726 101.338 259.178H101.014C96.1543 251.24 88.0542 248 78.3342 248C70.3962 248 62.9442 251.564 57.1122 258.368H56.9502V249.62H27.9522V329ZM195.637 330.62C218.155 330.62 229.171 319.928 229.171 304.376C229.171 288.824 220.261 283.64 202.279 277.97C194.341 275.378 192.397 273.92 192.397 272.3C192.397 270.032 194.989 269.06 197.419 269.06C202.441 269.06 209.083 271.976 214.105 277.322L227.551 258.044C218.155 251.402 209.407 248 196.447 248C179.923 248 165.991 257.234 165.991 274.73C165.991 289.796 177.817 296.6 191.263 300.488C200.983 303.404 202.117 304.7 202.117 306.644C202.117 308.75 200.173 309.884 196.123 309.884C190.129 309.884 183.163 306.968 176.359 300.974L163.237 318.794C172.309 326.894 183.325 330.62 195.637 330.62Z"/>
<path d="M-197.6 448H-167.144V336.706H-190.958L-227.084 361.978L-212.828 384.334L-197.6 372.994V448ZM-150.184 448H-121.186V408.148C-121.186 397.294 -116.65 392.596 -110.17 392.596C-102.718 392.596 -100.612 399.562 -100.612 408.148V448H-71.7765V408.148C-71.7765 397.294 -67.0785 392.596 -61.2465 392.596C-53.4705 392.596 -51.6885 399.562 -51.6885 408.148V448H-22.6905V401.506C-22.6905 375.91 -34.6785 367 -51.0405 367C-61.5705 367 -70.6425 370.726 -76.7985 378.178H-77.1225C-81.9825 370.24 -90.0825 367 -99.8025 367C-107.74 367 -115.192 370.564 -121.024 377.368H-121.186V368.62H-150.184V448ZM-9.06729 448H19.9307V408.148C19.9307 397.294 24.4667 392.596 30.9467 392.596C38.3987 392.596 40.5047 399.562 40.5047 408.148V448H69.3407V408.148C69.3407 397.294 74.0387 392.596 79.8707 392.596C87.6467 392.596 89.4287 399.562 89.4287 408.148V448H118.427V401.506C118.427 375.91 106.439 367 90.0767 367C79.5467 367 70.4747 370.726 64.3187 378.178H63.9947C59.1347 370.24 51.0347 367 41.3147 367C33.3767 367 25.9247 370.564 20.0927 377.368H19.9307V368.62H-9.06729V448ZM158.618 449.62C181.136 449.62 192.152 438.928 192.152 423.376C192.152 407.824 183.242 402.64 165.26 396.97C157.322 394.378 155.378 392.92 155.378 391.3C155.378 389.032 157.97 388.06 160.4 388.06C165.422 388.06 172.064 390.976 177.086 396.322L190.532 377.044C181.136 370.402 172.388 367 159.428 367C142.904 367 128.972 376.234 128.972 393.73C128.972 408.796 140.798 415.6 154.244 419.488C163.964 422.404 165.098 423.7 165.098 425.644C165.098 427.75 163.154 428.884 159.104 428.884C153.11 428.884 146.144 425.968 139.34 419.974L126.218 437.794C135.29 445.894 146.306 449.62 158.618 449.62Z"/>
<path d="M-234.619 567H-204.163V455.706H-227.977L-264.103 480.978L-249.847 503.334L-234.619 491.994V567ZM-187.204 567H-158.206V527.148C-158.206 516.294 -153.67 511.596 -147.19 511.596C-139.738 511.596 -137.632 518.562 -137.632 527.148V567H-108.796V527.148C-108.796 516.294 -104.098 511.596 -98.266 511.596C-90.49 511.596 -88.708 518.562 -88.708 527.148V567H-59.71V520.506C-59.71 494.91 -71.698 486 -88.06 486C-98.59 486 -107.662 489.726 -113.818 497.178H-114.142C-119.002 489.24 -127.102 486 -136.822 486C-144.76 486 -152.212 489.564 -158.044 496.368H-158.206V487.62H-187.204V567ZM-46.0868 567H-17.0888V527.148C-17.0888 516.294 -12.5528 511.596 -6.07281 511.596C1.37918 511.596 3.48517 518.562 3.48517 527.148V567H32.3212V527.148C32.3212 516.294 37.0192 511.596 42.8512 511.596C50.6272 511.596 52.4092 518.562 52.4092 527.148V567H81.4072V520.506C81.4072 494.91 69.4192 486 53.0572 486C42.5272 486 33.4552 489.726 27.2992 497.178H26.9752C22.1152 489.24 14.0152 486 4.29517 486C-3.64282 486 -11.0948 489.564 -16.9268 496.368H-17.0888V487.62H-46.0868V567ZM121.598 568.62C144.116 568.62 155.132 557.928 155.132 542.376C155.132 526.824 146.222 521.64 128.24 515.97C120.302 513.378 118.358 511.92 118.358 510.3C118.358 508.032 120.95 507.06 123.38 507.06C128.402 507.06 135.044 509.976 140.066 515.322L153.512 496.044C144.116 489.402 135.368 486 122.408 486C105.884 486 91.9524 495.234 91.9524 512.73C91.9524 527.796 103.778 534.6 117.224 538.488C126.944 541.404 128.078 542.7 128.078 544.644C128.078 546.75 126.134 547.884 122.084 547.884C116.09 547.884 109.124 544.968 102.32 538.974L89.1984 556.794C98.2704 564.894 109.286 568.62 121.598 568.62Z"/>
<path d="M-271.639 686H-241.183V574.706H-264.997L-301.123 599.978L-286.867 622.334L-271.639 610.994V686ZM-224.224 686H-195.226V646.148C-195.226 635.294 -190.69 630.596 -184.21 630.596C-176.758 630.596 -174.652 637.562 -174.652 646.148V686H-145.816V646.148C-145.816 635.294 -141.118 630.596 -135.286 630.596C-127.51 630.596 -125.728 637.562 -125.728 646.148V686H-96.7296V639.506C-96.7296 613.91 -108.718 605 -125.08 605C-135.61 605 -144.682 608.726 -150.838 616.178H-151.162C-156.022 608.24 -164.122 605 -173.842 605C-181.78 605 -189.232 608.564 -195.064 615.368H-195.226V606.62H-224.224V686ZM-83.1064 686H-54.1084V646.148C-54.1084 635.294 -49.5724 630.596 -43.0923 630.596C-35.6404 630.596 -33.5344 637.562 -33.5344 646.148V686H-4.69836V646.148C-4.69836 635.294 -0.000366211 630.596 5.83163 630.596C13.6076 630.596 15.3896 637.562 15.3896 646.148V686H44.3876V639.506C44.3876 613.91 32.3996 605 16.0376 605C5.50763 605 -3.56436 608.726 -9.72037 616.178H-10.0443C-14.9043 608.24 -23.0044 605 -32.7244 605C-40.6624 605 -48.1143 608.564 -53.9464 615.368H-54.1084V606.62H-83.1064V686ZM84.5788 687.62C107.097 687.62 118.113 676.928 118.113 661.376C118.113 645.824 109.203 640.64 91.2208 634.97C83.2828 632.378 81.3388 630.92 81.3388 629.3C81.3388 627.032 83.9308 626.06 86.3608 626.06C91.3828 626.06 98.0248 628.976 103.047 634.322L116.493 615.044C107.097 608.402 98.3488 605 85.3888 605C68.8648 605 54.9328 614.234 54.9328 631.73C54.9328 646.796 66.7588 653.6 80.2048 657.488C89.9248 660.404 91.0588 661.7 91.0588 663.644C91.0588 665.75 89.1148 666.884 85.0648 666.884C79.0708 666.884 72.1048 663.968 65.3008 657.974L52.1788 675.794C61.2508 683.894 72.2668 687.62 84.5788 687.62Z"/>
<path d="M-308.658 805H-278.202V693.706H-302.016L-338.142 718.978L-323.886 741.334L-308.658 729.994V805ZM-261.243 805H-232.245V765.148C-232.245 754.294 -227.709 749.596 -221.229 749.596C-213.777 749.596 -211.671 756.562 -211.671 765.148V805H-182.835V765.148C-182.835 754.294 -178.137 749.596 -172.305 749.596C-164.529 749.596 -162.747 756.562 -162.747 765.148V805H-133.749V758.506C-133.749 732.91 -145.737 724 -162.099 724C-172.629 724 -181.701 727.726 -187.857 735.178H-188.181C-193.041 727.24 -201.141 724 -210.861 724C-218.799 724 -226.251 727.564 -232.083 734.368H-232.245V725.62H-261.243V805ZM-120.126 805H-91.1279V765.148C-91.1279 754.294 -86.5919 749.596 -80.1119 749.596C-72.6599 749.596 -70.5539 756.562 -70.5539 765.148V805H-41.7179V765.148C-41.7179 754.294 -37.0199 749.596 -31.1879 749.596C-23.4119 749.596 -21.6299 756.562 -21.6299 765.148V805H7.3681V758.506C7.3681 732.91 -4.6199 724 -20.9819 724C-31.5119 724 -40.5839 727.726 -46.7399 735.178H-47.0639C-51.9239 727.24 -60.0239 724 -69.7439 724C-77.6819 724 -85.1339 727.564 -90.9659 734.368H-91.1279V725.62H-120.126V805ZM47.5593 806.62C70.0773 806.62 81.0933 795.928 81.0933 780.376C81.0933 764.824 72.1833 759.64 54.2013 753.97C46.2633 751.378 44.3193 749.92 44.3193 748.3C44.3193 746.032 46.9113 745.06 49.3413 745.06C54.3633 745.06 61.0053 747.976 66.0273 753.322L79.4733 734.044C70.0773 727.402 61.3293 724 48.3693 724C31.8453 724 17.9133 733.234 17.9133 750.73C17.9133 765.796 29.7393 772.6 43.1853 776.488C52.9053 779.404 54.0393 780.7 54.0393 782.644C54.0393 784.75 52.0953 785.884 48.0453 785.884C42.0513 785.884 35.0853 782.968 28.2813 776.974L15.1593 794.794C24.2313 802.894 35.2473 806.62 47.5593 806.62Z"/>
<path d="M-345.678 924H-315.222V812.706H-339.036L-375.162 837.978L-360.906 860.334L-345.678 848.994V924ZM-298.263 924H-269.265V884.148C-269.265 873.294 -264.729 868.596 -258.249 868.596C-250.797 868.596 -248.691 875.562 -248.691 884.148V924H-219.855V884.148C-219.855 873.294 -215.157 868.596 -209.325 868.596C-201.549 868.596 -199.767 875.562 -199.767 884.148V924H-170.769V877.506C-170.769 851.91 -182.757 843 -199.119 843C-209.649 843 -218.721 846.726 -224.877 854.178H-225.201C-230.061 846.24 -238.161 843 -247.881 843C-255.819 843 -263.271 846.564 -269.103 853.368H-269.265V844.62H-298.263V924ZM-157.145 924H-128.147V884.148C-128.147 873.294 -123.611 868.596 -117.131 868.596C-109.679 868.596 -107.573 875.562 -107.573 884.148V924H-78.7374V884.148C-78.7374 873.294 -74.0394 868.596 -68.2074 868.596C-60.4314 868.596 -58.6494 875.562 -58.6494 884.148V924H-29.6514V877.506C-29.6514 851.91 -41.6394 843 -58.0014 843C-68.5314 843 -77.6034 846.726 -83.7594 854.178H-84.0834C-88.9434 846.24 -97.0434 843 -106.763 843C-114.701 843 -122.153 846.564 -127.985 853.368H-128.147V844.62H-157.145V924ZM10.5398 925.62C33.0578 925.62 44.0738 914.928 44.0738 899.376C44.0738 883.824 35.1638 878.64 17.1818 872.97C9.24377 870.378 7.29977 868.92 7.29977 867.3C7.29977 865.032 9.89178 864.06 12.3218 864.06C17.3438 864.06 23.9858 866.976 29.0078 872.322L42.4538 853.044C33.0578 846.402 24.3098 843 11.3498 843C-5.17422 843 -19.1062 852.234 -19.1062 869.73C-19.1062 884.796 -7.28024 891.6 6.16577 895.488C15.8858 898.404 17.0198 899.7 17.0198 901.644C17.0198 903.75 15.0757 904.884 11.0258 904.884C5.03177 904.884 -1.93423 901.968 -8.73825 895.974L-21.8602 913.794C-12.7882 921.894 -1.77225 925.62 10.5398 925.62Z"/>
</mask>
<path d="M61.5369 -385H91.9929V-496.294H68.1789L32.0529 -471.022L46.3089 -448.666L61.5369 -460.006V-385ZM108.952 -385H137.95V-424.852C137.95 -435.706 142.486 -440.404 148.966 -440.404C156.418 -440.404 158.524 -433.438 158.524 -424.852V-385H187.36V-424.852C187.36 -435.706 192.058 -440.404 197.89 -440.404C205.666 -440.404 207.448 -433.438 207.448 -424.852V-385H236.446V-431.494C236.446 -457.09 224.458 -466 208.096 -466C197.566 -466 188.494 -462.274 182.338 -454.822H182.014C177.154 -462.76 169.054 -466 159.334 -466C151.396 -466 143.944 -462.436 138.112 -455.632H137.95V-464.38H108.952V-385ZM250.069 -385H279.067V-424.852C279.067 -435.706 283.603 -440.404 290.083 -440.404C297.535 -440.404 299.641 -433.438 299.641 -424.852V-385H328.477V-424.852C328.477 -435.706 333.175 -440.404 339.007 -440.404C346.783 -440.404 348.565 -433.438 348.565 -424.852V-385H377.563V-431.494C377.563 -457.09 365.575 -466 349.213 -466C338.683 -466 329.611 -462.274 323.455 -454.822H323.131C318.271 -462.76 310.171 -466 300.451 -466C292.513 -466 285.061 -462.436 279.229 -455.632H279.067V-464.38H250.069V-385ZM417.755 -383.38C440.273 -383.38 451.289 -394.072 451.289 -409.624C451.289 -425.176 442.379 -430.36 424.397 -436.03C416.459 -438.622 414.515 -440.08 414.515 -441.7C414.515 -443.968 417.107 -444.94 419.537 -444.94C424.559 -444.94 431.201 -442.024 436.223 -436.678L449.669 -455.956C440.273 -462.598 431.525 -466 418.565 -466C402.041 -466 388.109 -456.766 388.109 -439.27C388.109 -424.204 399.935 -417.4 413.381 -413.512C423.101 -410.596 424.235 -409.3 424.235 -407.356C424.235 -405.25 422.291 -404.116 418.241 -404.116C412.247 -404.116 405.281 -407.032 398.477 -413.026L385.355 -395.206C394.427 -387.106 405.443 -383.38 417.755 -383.38Z" stroke="#E6E9EA" stroke-opacity="0.06" stroke-width="2" mask="url(#path-1-outside-1_1_1137)"/>
<path d="M24.5173 -266H54.9733V-377.294H31.1593L-4.96667 -352.022L9.28934 -329.666L24.5173 -341.006V-266ZM71.9327 -266H100.931V-305.852C100.931 -316.706 105.467 -321.404 111.947 -321.404C119.399 -321.404 121.505 -314.438 121.505 -305.852V-266H150.341V-305.852C150.341 -316.706 155.039 -321.404 160.871 -321.404C168.647 -321.404 170.429 -314.438 170.429 -305.852V-266H199.427V-312.494C199.427 -338.09 187.439 -347 171.077 -347C160.547 -347 151.475 -343.274 145.319 -335.822H144.995C140.135 -343.76 132.035 -347 122.315 -347C114.377 -347 106.925 -343.436 101.093 -336.632H100.931V-345.38H71.9327V-266ZM213.05 -266H242.048V-305.852C242.048 -316.706 246.584 -321.404 253.064 -321.404C260.516 -321.404 262.622 -314.438 262.622 -305.852V-266H291.458V-305.852C291.458 -316.706 296.156 -321.404 301.988 -321.404C309.764 -321.404 311.546 -314.438 311.546 -305.852V-266H340.544V-312.494C340.544 -338.09 328.556 -347 312.194 -347C301.664 -347 292.592 -343.274 286.436 -335.822H286.112C281.252 -343.76 273.152 -347 263.432 -347C255.494 -347 248.042 -343.436 242.21 -336.632H242.048V-345.38H213.05V-266ZM380.735 -264.38C403.253 -264.38 414.269 -275.072 414.269 -290.624C414.269 -306.176 405.359 -311.36 387.377 -317.03C379.439 -319.622 377.495 -321.08 377.495 -322.7C377.495 -324.968 380.087 -325.94 382.517 -325.94C387.539 -325.94 394.181 -323.024 399.203 -317.678L412.649 -336.956C403.253 -343.598 394.505 -347 381.545 -347C365.021 -347 351.089 -337.766 351.089 -320.27C351.089 -305.204 362.915 -298.4 376.361 -294.512C386.081 -291.596 387.215 -290.3 387.215 -288.356C387.215 -286.25 385.271 -285.116 381.221 -285.116C375.227 -285.116 368.261 -288.032 361.457 -294.026L348.335 -276.206C357.407 -268.106 368.423 -264.38 380.735 -264.38Z" stroke="#E6E9EA" stroke-opacity="0.06" stroke-width="2" mask="url(#path-1-outside-1_1_1137)"/>
<path d="M-12.5022 -147H17.9538V-258.294H-5.8602L-41.9862 -233.022L-27.7302 -210.666L-12.5022 -222.006V-147ZM34.9132 -147H63.9112V-186.852C63.9112 -197.706 68.4472 -202.404 74.9272 -202.404C82.3792 -202.404 84.4852 -195.438 84.4852 -186.852V-147H113.321V-186.852C113.321 -197.706 118.019 -202.404 123.851 -202.404C131.627 -202.404 133.409 -195.438 133.409 -186.852V-147H162.407V-193.494C162.407 -219.09 150.419 -228 134.057 -228C123.527 -228 114.455 -224.274 108.299 -216.822H107.975C103.115 -224.76 95.0152 -228 85.2952 -228C77.3572 -228 69.9052 -224.436 64.0732 -217.632H63.9112V-226.38H34.9132V-147ZM176.03 -147H205.028V-186.852C205.028 -197.706 209.564 -202.404 216.044 -202.404C223.496 -202.404 225.602 -195.438 225.602 -186.852V-147H254.438V-186.852C254.438 -197.706 259.136 -202.404 264.968 -202.404C272.744 -202.404 274.526 -195.438 274.526 -186.852V-147H303.524V-193.494C303.524 -219.09 291.536 -228 275.174 -228C264.644 -228 255.572 -224.274 249.416 -216.822H249.092C244.232 -224.76 236.132 -228 226.412 -228C218.474 -228 211.022 -224.436 205.19 -217.632H205.028V-226.38H176.03V-147ZM343.716 -145.38C366.234 -145.38 377.25 -156.072 377.25 -171.624C377.25 -187.176 368.34 -192.36 350.358 -198.03C342.42 -200.622 340.476 -202.08 340.476 -203.7C340.476 -205.968 343.068 -206.94 345.498 -206.94C350.52 -206.94 357.162 -204.024 362.184 -198.678L375.63 -217.956C366.234 -224.598 357.486 -228 344.526 -228C328.002 -228 314.07 -218.766 314.07 -201.27C314.07 -186.204 325.896 -179.4 339.342 -175.512C349.062 -172.596 350.196 -171.3 350.196 -169.356C350.196 -167.25 348.252 -166.116 344.202 -166.116C338.208 -166.116 331.242 -169.032 324.438 -175.026L311.316 -157.206C320.388 -149.106 331.404 -145.38 343.716 -145.38Z" stroke="#E6E9EA" stroke-opacity="0.06" stroke-width="2" mask="url(#path-1-outside-1_1_1137)"/>
<path d="M-49.5217 -27.9999H-19.0657V-139.294H-42.8797L-79.0057 -114.022L-64.7497 -91.666L-49.5217 -103.006V-27.9999ZM-2.10635 -27.9999H26.8916V-67.8519C26.8916 -78.7059 31.4276 -83.4039 37.9077 -83.4039C45.3596 -83.4039 47.4656 -76.4379 47.4656 -67.8519V-27.9999H76.3016V-67.8519C76.3016 -78.7059 80.9996 -83.4039 86.8316 -83.4039C94.6076 -83.4039 96.3896 -76.4379 96.3896 -67.8519V-27.9999H125.388V-74.4939C125.388 -100.09 113.4 -109 97.0376 -109C86.5076 -109 77.4356 -105.274 71.2796 -97.8219H70.9557C66.0957 -105.76 57.9956 -109 48.2756 -109C40.3376 -109 32.8857 -105.436 27.0536 -98.6319H26.8916V-107.38H-2.10635V-27.9999ZM139.011 -27.9999H168.009V-67.8519C168.009 -78.7059 172.545 -83.4039 179.025 -83.4039C186.477 -83.4039 188.583 -76.4379 188.583 -67.8519V-27.9999H217.419V-67.8519C217.419 -78.7059 222.117 -83.4039 227.949 -83.4039C235.725 -83.4039 237.507 -76.4379 237.507 -67.8519V-27.9999H266.505V-74.4939C266.505 -100.09 254.517 -109 238.155 -109C227.625 -109 218.553 -105.274 212.397 -97.8219H212.073C207.213 -105.76 199.113 -109 189.393 -109C181.455 -109 174.003 -105.436 168.171 -98.6319H168.009V-107.38H139.011V-27.9999ZM306.696 -26.3799C329.214 -26.3799 340.23 -37.0719 340.23 -52.6239C340.23 -68.1759 331.32 -73.3599 313.338 -79.0299C305.4 -81.6219 303.456 -83.08 303.456 -84.7C303.456 -86.968 306.048 -87.9399 308.478 -87.9399C313.5 -87.9399 320.142 -85.024 325.164 -79.6779L338.61 -98.9559C329.214 -105.598 320.466 -109 307.506 -109C290.982 -109 277.05 -99.7659 277.05 -82.2699C277.05 -67.2039 288.876 -60.3999 302.322 -56.5119C312.042 -53.5959 313.176 -52.2999 313.176 -50.3559C313.176 -48.2499 311.232 -47.1159 307.182 -47.1159C301.188 -47.1159 294.222 -50.032 287.418 -56.0259L274.296 -38.2059C283.368 -30.1059 294.384 -26.3799 306.696 -26.3799Z" stroke="#E6E9EA" stroke-opacity="0.06" stroke-width="2" mask="url(#path-1-outside-1_1_1137)"/>
<path d="M-86.5413 91.0001H-56.0853V-20.2939H-79.8993L-116.025 4.97806L-101.769 27.334L-86.5413 15.9941V91.0001ZM-39.1259 91.0001H-10.1279V51.1481C-10.1279 40.2941 -5.59189 35.5961 0.888123 35.5961C8.34012 35.5961 10.4461 42.5621 10.4461 51.1481V91.0001H39.2821V51.1481C39.2821 40.2941 43.9801 35.5961 49.8121 35.5961C57.5881 35.5961 59.3701 42.5621 59.3701 51.1481V91.0001H88.3681V44.506C88.3681 18.91 76.3801 10.0001 60.0181 10.0001C49.4881 10.0001 40.4161 13.726 34.2601 21.178H33.9361C29.0761 13.2401 20.9761 10.0001 11.2561 10.0001C3.31812 10.0001 -4.13388 13.5641 -9.96588 20.368H-10.1279V11.6201H-39.1259V91.0001ZM101.991 91.0001H130.989V51.1481C130.989 40.2941 135.525 35.5961 142.005 35.5961C149.457 35.5961 151.563 42.5621 151.563 51.1481V91.0001H180.399V51.1481C180.399 40.2941 185.097 35.5961 190.929 35.5961C198.705 35.5961 200.487 42.5621 200.487 51.1481V91.0001H229.485V44.506C229.485 18.91 217.497 10.0001 201.135 10.0001C190.605 10.0001 181.533 13.726 175.377 21.178H175.053C170.193 13.2401 162.093 10.0001 152.373 10.0001C144.435 10.0001 136.983 13.5641 131.151 20.368H130.989V11.6201H101.991V91.0001ZM269.676 92.6201C292.194 92.6201 303.211 81.928 303.211 66.376C303.211 50.824 294.3 45.64 276.318 39.97C268.38 37.3781 266.436 35.92 266.436 34.3C266.436 32.032 269.029 31.0601 271.458 31.0601C276.48 31.0601 283.122 33.9761 288.144 39.3221L301.591 20.0441C292.195 13.4021 283.447 10.0001 270.487 10.0001C253.963 10.0001 240.03 19.234 240.03 36.73C240.03 51.796 251.857 58.6 265.302 62.488C275.022 65.4041 276.156 66.7001 276.156 68.644C276.156 70.7501 274.212 71.884 270.162 71.884C264.168 71.884 257.203 68.9681 250.398 62.9741L237.276 80.7941C246.349 88.894 257.364 92.6201 269.676 92.6201Z" stroke="#E6E9EA" stroke-opacity="0.06" stroke-width="2" mask="url(#path-1-outside-1_1_1137)"/>
<path d="M-123.561 210H-93.1048V98.7061H-116.919L-153.045 123.978L-138.789 146.334L-123.561 134.994V210ZM-76.1454 210H-47.1474V170.148C-47.1474 159.294 -42.6114 154.596 -36.1314 154.596C-28.6794 154.596 -26.5734 161.562 -26.5734 170.148V210H2.26257V170.148C2.26257 159.294 6.96057 154.596 12.7926 154.596C20.5686 154.596 22.3506 161.562 22.3506 170.148V210H51.3486V163.506C51.3486 137.91 39.3606 129 22.9986 129C12.4686 129 3.39658 132.726 -2.75943 140.178H-3.0834C-7.94339 132.24 -16.0434 129 -25.7634 129C-33.7014 129 -41.1534 132.564 -46.9854 139.368H-47.1474V130.62H-76.1454V210ZM64.9718 210H93.9698V170.148C93.9698 159.294 98.5058 154.596 104.986 154.596C112.438 154.596 114.544 161.562 114.544 170.148V210H143.38V170.148C143.38 159.294 148.078 154.596 153.91 154.596C161.686 154.596 163.468 161.562 163.468 170.148V210H192.466V163.506C192.466 137.91 180.478 129 164.116 129C153.586 129 144.514 132.726 138.358 140.178H138.034C133.174 132.24 125.074 129 115.354 129C107.416 129 99.9638 132.564 94.1318 139.368H93.9698V130.62H64.9718V210ZM232.657 211.62C255.175 211.62 266.191 200.928 266.191 185.376C266.191 169.824 257.281 164.64 239.299 158.97C231.361 156.378 229.417 154.92 229.417 153.3C229.417 151.032 232.009 150.06 234.439 150.06C239.461 150.06 246.103 152.976 251.125 158.322L264.571 139.044C255.175 132.402 246.427 129 233.467 129C216.943 129 203.011 138.234 203.011 155.73C203.011 170.796 214.837 177.6 228.283 181.488C238.003 184.404 239.137 185.7 239.137 187.644C239.137 189.75 237.193 190.884 233.143 190.884C227.149 190.884 220.183 187.968 213.379 181.974L200.257 199.794C209.329 207.894 220.345 211.62 232.657 211.62Z" stroke="#E6E9EA" stroke-opacity="0.06" stroke-width="2" mask="url(#path-1-outside-1_1_1137)"/>
<path d="M-160.58 329H-130.124V217.706H-153.938L-190.064 242.978L-175.808 265.334L-160.58 253.994V329ZM-113.165 329H-84.167V289.148C-84.167 278.294 -79.631 273.596 -73.1509 273.596C-65.6989 273.596 -63.593 280.562 -63.593 289.148V329H-34.757V289.148C-34.757 278.294 -30.059 273.596 -24.227 273.596C-16.451 273.596 -14.6689 280.562 -14.6689 289.148V329H14.329V282.506C14.329 256.91 2.34103 248 -14.021 248C-24.551 248 -33.623 251.726 -39.779 259.178H-40.1029C-44.9629 251.24 -53.063 248 -62.783 248C-70.7209 248 -78.1729 251.564 -84.0049 258.368H-84.167V249.62H-113.165V329ZM27.9522 329H56.9502V289.148C56.9502 278.294 61.4862 273.596 67.9662 273.596C75.4182 273.596 77.5242 280.562 77.5242 289.148V329H106.36V289.148C106.36 278.294 111.058 273.596 116.89 273.596C124.666 273.596 126.448 280.562 126.448 289.148V329H155.446V282.506C155.446 256.91 143.458 248 127.096 248C116.566 248 107.494 251.726 101.338 259.178H101.014C96.1543 251.24 88.0542 248 78.3342 248C70.3962 248 62.9442 251.564 57.1122 258.368H56.9502V249.62H27.9522V329ZM195.637 330.62C218.155 330.62 229.171 319.928 229.171 304.376C229.171 288.824 220.261 283.64 202.279 277.97C194.341 275.378 192.397 273.92 192.397 272.3C192.397 270.032 194.989 269.06 197.419 269.06C202.441 269.06 209.083 271.976 214.105 277.322L227.551 258.044C218.155 251.402 209.407 248 196.447 248C179.923 248 165.991 257.234 165.991 274.73C165.991 289.796 177.817 296.6 191.263 300.488C200.983 303.404 202.117 304.7 202.117 306.644C202.117 308.75 200.173 309.884 196.123 309.884C190.129 309.884 183.163 306.968 176.359 300.974L163.237 318.794C172.309 326.894 183.325 330.62 195.637 330.62Z" stroke="#E6E9EA" stroke-opacity="0.06" stroke-width="2" mask="url(#path-1-outside-1_1_1137)"/>
<path d="M-197.6 448H-167.144V336.706H-190.958L-227.084 361.978L-212.828 384.334L-197.6 372.994V448ZM-150.184 448H-121.186V408.148C-121.186 397.294 -116.65 392.596 -110.17 392.596C-102.718 392.596 -100.612 399.562 -100.612 408.148V448H-71.7765V408.148C-71.7765 397.294 -67.0785 392.596 -61.2465 392.596C-53.4705 392.596 -51.6885 399.562 -51.6885 408.148V448H-22.6905V401.506C-22.6905 375.91 -34.6785 367 -51.0405 367C-61.5705 367 -70.6425 370.726 -76.7985 378.178H-77.1225C-81.9825 370.24 -90.0825 367 -99.8025 367C-107.74 367 -115.192 370.564 -121.024 377.368H-121.186V368.62H-150.184V448ZM-9.06729 448H19.9307V408.148C19.9307 397.294 24.4667 392.596 30.9467 392.596C38.3987 392.596 40.5047 399.562 40.5047 408.148V448H69.3407V408.148C69.3407 397.294 74.0387 392.596 79.8707 392.596C87.6467 392.596 89.4287 399.562 89.4287 408.148V448H118.427V401.506C118.427 375.91 106.439 367 90.0767 367C79.5467 367 70.4747 370.726 64.3187 378.178H63.9947C59.1347 370.24 51.0347 367 41.3147 367C33.3767 367 25.9247 370.564 20.0927 377.368H19.9307V368.62H-9.06729V448ZM158.618 449.62C181.136 449.62 192.152 438.928 192.152 423.376C192.152 407.824 183.242 402.64 165.26 396.97C157.322 394.378 155.378 392.92 155.378 391.3C155.378 389.032 157.97 388.06 160.4 388.06C165.422 388.06 172.064 390.976 177.086 396.322L190.532 377.044C181.136 370.402 172.388 367 159.428 367C142.904 367 128.972 376.234 128.972 393.73C128.972 408.796 140.798 415.6 154.244 419.488C163.964 422.404 165.098 423.7 165.098 425.644C165.098 427.75 163.154 428.884 159.104 428.884C153.11 428.884 146.144 425.968 139.34 419.974L126.218 437.794C135.29 445.894 146.306 449.62 158.618 449.62Z" stroke="#E6E9EA" stroke-opacity="0.06" stroke-width="2" mask="url(#path-1-outside-1_1_1137)"/>
<path d="M-234.619 567H-204.163V455.706H-227.977L-264.103 480.978L-249.847 503.334L-234.619 491.994V567ZM-187.204 567H-158.206V527.148C-158.206 516.294 -153.67 511.596 -147.19 511.596C-139.738 511.596 -137.632 518.562 -137.632 527.148V567H-108.796V527.148C-108.796 516.294 -104.098 511.596 -98.266 511.596C-90.49 511.596 -88.708 518.562 -88.708 527.148V567H-59.71V520.506C-59.71 494.91 -71.698 486 -88.06 486C-98.59 486 -107.662 489.726 -113.818 497.178H-114.142C-119.002 489.24 -127.102 486 -136.822 486C-144.76 486 -152.212 489.564 -158.044 496.368H-158.206V487.62H-187.204V567ZM-46.0868 567H-17.0888V527.148C-17.0888 516.294 -12.5528 511.596 -6.07281 511.596C1.37918 511.596 3.48517 518.562 3.48517 527.148V567H32.3212V527.148C32.3212 516.294 37.0192 511.596 42.8512 511.596C50.6272 511.596 52.4092 518.562 52.4092 527.148V567H81.4072V520.506C81.4072 494.91 69.4192 486 53.0572 486C42.5272 486 33.4552 489.726 27.2992 497.178H26.9752C22.1152 489.24 14.0152 486 4.29517 486C-3.64282 486 -11.0948 489.564 -16.9268 496.368H-17.0888V487.62H-46.0868V567ZM121.598 568.62C144.116 568.62 155.132 557.928 155.132 542.376C155.132 526.824 146.222 521.64 128.24 515.97C120.302 513.378 118.358 511.92 118.358 510.3C118.358 508.032 120.95 507.06 123.38 507.06C128.402 507.06 135.044 509.976 140.066 515.322L153.512 496.044C144.116 489.402 135.368 486 122.408 486C105.884 486 91.9524 495.234 91.9524 512.73C91.9524 527.796 103.778 534.6 117.224 538.488C126.944 541.404 128.078 542.7 128.078 544.644C128.078 546.75 126.134 547.884 122.084 547.884C116.09 547.884 109.124 544.968 102.32 538.974L89.1984 556.794C98.2704 564.894 109.286 568.62 121.598 568.62Z" stroke="#E6E9EA" stroke-opacity="0.06" stroke-width="2" mask="url(#path-1-outside-1_1_1137)"/>
<path d="M-271.639 686H-241.183V574.706H-264.997L-301.123 599.978L-286.867 622.334L-271.639 610.994V686ZM-224.224 686H-195.226V646.148C-195.226 635.294 -190.69 630.596 -184.21 630.596C-176.758 630.596 -174.652 637.562 -174.652 646.148V686H-145.816V646.148C-145.816 635.294 -141.118 630.596 -135.286 630.596C-127.51 630.596 -125.728 637.562 -125.728 646.148V686H-96.7296V639.506C-96.7296 613.91 -108.718 605 -125.08 605C-135.61 605 -144.682 608.726 -150.838 616.178H-151.162C-156.022 608.24 -164.122 605 -173.842 605C-181.78 605 -189.232 608.564 -195.064 615.368H-195.226V606.62H-224.224V686ZM-83.1064 686H-54.1084V646.148C-54.1084 635.294 -49.5724 630.596 -43.0923 630.596C-35.6404 630.596 -33.5344 637.562 -33.5344 646.148V686H-4.69836V646.148C-4.69836 635.294 -0.000366211 630.596 5.83163 630.596C13.6076 630.596 15.3896 637.562 15.3896 646.148V686H44.3876V639.506C44.3876 613.91 32.3996 605 16.0376 605C5.50763 605 -3.56436 608.726 -9.72037 616.178H-10.0443C-14.9043 608.24 -23.0044 605 -32.7244 605C-40.6624 605 -48.1143 608.564 -53.9464 615.368H-54.1084V606.62H-83.1064V686ZM84.5788 687.62C107.097 687.62 118.113 676.928 118.113 661.376C118.113 645.824 109.203 640.64 91.2208 634.97C83.2828 632.378 81.3388 630.92 81.3388 629.3C81.3388 627.032 83.9308 626.06 86.3608 626.06C91.3828 626.06 98.0248 628.976 103.047 634.322L116.493 615.044C107.097 608.402 98.3488 605 85.3888 605C68.8648 605 54.9328 614.234 54.9328 631.73C54.9328 646.796 66.7588 653.6 80.2048 657.488C89.9248 660.404 91.0588 661.7 91.0588 663.644C91.0588 665.75 89.1148 666.884 85.0648 666.884C79.0708 666.884 72.1048 663.968 65.3008 657.974L52.1788 675.794C61.2508 683.894 72.2668 687.62 84.5788 687.62Z" stroke="#E6E9EA" stroke-opacity="0.06" stroke-width="2" mask="url(#path-1-outside-1_1_1137)"/>
<path d="M-308.658 805H-278.202V693.706H-302.016L-338.142 718.978L-323.886 741.334L-308.658 729.994V805ZM-261.243 805H-232.245V765.148C-232.245 754.294 -227.709 749.596 -221.229 749.596C-213.777 749.596 -211.671 756.562 -211.671 765.148V805H-182.835V765.148C-182.835 754.294 -178.137 749.596 -172.305 749.596C-164.529 749.596 -162.747 756.562 -162.747 765.148V805H-133.749V758.506C-133.749 732.91 -145.737 724 -162.099 724C-172.629 724 -181.701 727.726 -187.857 735.178H-188.181C-193.041 727.24 -201.141 724 -210.861 724C-218.799 724 -226.251 727.564 -232.083 734.368H-232.245V725.62H-261.243V805ZM-120.126 805H-91.1279V765.148C-91.1279 754.294 -86.5919 749.596 -80.1119 749.596C-72.6599 749.596 -70.5539 756.562 -70.5539 765.148V805H-41.7179V765.148C-41.7179 754.294 -37.0199 749.596 -31.1879 749.596C-23.4119 749.596 -21.6299 756.562 -21.6299 765.148V805H7.3681V758.506C7.3681 732.91 -4.6199 724 -20.9819 724C-31.5119 724 -40.5839 727.726 -46.7399 735.178H-47.0639C-51.9239 727.24 -60.0239 724 -69.7439 724C-77.6819 724 -85.1339 727.564 -90.9659 734.368H-91.1279V725.62H-120.126V805ZM47.5593 806.62C70.0773 806.62 81.0933 795.928 81.0933 780.376C81.0933 764.824 72.1833 759.64 54.2013 753.97C46.2633 751.378 44.3193 749.92 44.3193 748.3C44.3193 746.032 46.9113 745.06 49.3413 745.06C54.3633 745.06 61.0053 747.976 66.0273 753.322L79.4733 734.044C70.0773 727.402 61.3293 724 48.3693 724C31.8453 724 17.9133 733.234 17.9133 750.73C17.9133 765.796 29.7393 772.6 43.1853 776.488C52.9053 779.404 54.0393 780.7 54.0393 782.644C54.0393 784.75 52.0953 785.884 48.0453 785.884C42.0513 785.884 35.0853 782.968 28.2813 776.974L15.1593 794.794C24.2313 802.894 35.2473 806.62 47.5593 806.62Z" stroke="#E6E9EA" stroke-opacity="0.06" stroke-width="2" mask="url(#path-1-outside-1_1_1137)"/>
<path d="M-345.678 924H-315.222V812.706H-339.036L-375.162 837.978L-360.906 860.334L-345.678 848.994V924ZM-298.263 924H-269.265V884.148C-269.265 873.294 -264.729 868.596 -258.249 868.596C-250.797 868.596 -248.691 875.562 -248.691 884.148V924H-219.855V884.148C-219.855 873.294 -215.157 868.596 -209.325 868.596C-201.549 868.596 -199.767 875.562 -199.767 884.148V924H-170.769V877.506C-170.769 851.91 -182.757 843 -199.119 843C-209.649 843 -218.721 846.726 -224.877 854.178H-225.201C-230.061 846.24 -238.161 843 -247.881 843C-255.819 843 -263.271 846.564 -269.103 853.368H-269.265V844.62H-298.263V924ZM-157.145 924H-128.147V884.148C-128.147 873.294 -123.611 868.596 -117.131 868.596C-109.679 868.596 -107.573 875.562 -107.573 884.148V924H-78.7374V884.148C-78.7374 873.294 -74.0394 868.596 -68.2074 868.596C-60.4314 868.596 -58.6494 875.562 -58.6494 884.148V924H-29.6514V877.506C-29.6514 851.91 -41.6394 843 -58.0014 843C-68.5314 843 -77.6034 846.726 -83.7594 854.178H-84.0834C-88.9434 846.24 -97.0434 843 -106.763 843C-114.701 843 -122.153 846.564 -127.985 853.368H-128.147V844.62H-157.145V924ZM10.5398 925.62C33.0578 925.62 44.0738 914.928 44.0738 899.376C44.0738 883.824 35.1638 878.64 17.1818 872.97C9.24377 870.378 7.29977 868.92 7.29977 867.3C7.29977 865.032 9.89178 864.06 12.3218 864.06C17.3438 864.06 23.9858 866.976 29.0078 872.322L42.4538 853.044C33.0578 846.402 24.3098 843 11.3498 843C-5.17422 843 -19.1062 852.234 -19.1062 869.73C-19.1062 884.796 -7.28024 891.6 6.16577 895.488C15.8858 898.404 17.0198 899.7 17.0198 901.644C17.0198 903.75 15.0757 904.884 11.0258 904.884C5.03177 904.884 -1.93423 901.968 -8.73825 895.974L-21.8602 913.794C-12.7882 921.894 -1.77225 925.62 10.5398 925.62Z" stroke="#E6E9EA" stroke-opacity="0.06" stroke-width="2" mask="url(#path-1-outside-1_1_1137)"/>
</svg>
